<?xml version="1.0" encoding="UTF-8" standalone="no"?>
<svg
   xmlns:dc="http://purl.org/dc/elements/1.1/"
   xmlns:cc="http://creativecommons.org/ns#"
   xmlns:rdf="http://www.w3.org/1999/02/22-rdf-syntax-ns#"
   xmlns:svg="http://www.w3.org/2000/svg"
   xmlns="http://www.w3.org/2000/svg"
   xmlns:sodipodi="http://sodipodi.sourceforge.net/DTD/sodipodi-0.dtd"
   xmlns:inkscape="http://www.inkscape.org/namespaces/inkscape"
   inkscape:version="1.0 (4035a4fb49, 2020-05-01)"
   sodipodi:docname="rad.svg"
   id="svg8"
   version="1.1"
   height="600"
   width="600">
  <metadata
     id="metadata14">
    <rdf:RDF>
      <cc:Work
         rdf:about="">
        <dc:format>image/svg+xml</dc:format>
        <dc:type
           rdf:resource="http://purl.org/dc/dcmitype/StillImage" />
      </cc:Work>
    </rdf:RDF>
  </metadata>
  <defs
     id="defs12" />
  <sodipodi:namedview
     inkscape:current-layer="svg8"
     inkscape:window-maximized="1"
     inkscape:window-y="-9"
     inkscape:window-x="-9"
     inkscape:cy="425.31012"
     inkscape:cx="325.93563"
     inkscape:zoom="0.84"
     inkscape:snap-page="true"
     inkscape:snap-object-midpoints="true"
     inkscape:snap-global="true"
     showgrid="false"
     id="namedview10"
     inkscape:window-height="1361"
     inkscape:window-width="2560"
     inkscape:pageshadow="2"
     inkscape:pageopacity="0"
     guidetolerance="10"
     gridtolerance="10"
     objecttolerance="10"
     borderopacity="1"
     bordercolor="#666666"
     pagecolor="#ffffff" />
  <g
     transform="translate(6,-378.22073)"
     style="opacity:1"
     id="g20">
    <path
       id="path22"
       d="m 50,600 c 0,27.61424 -22.385763,50 -50,50 -27.614237,0 -50,-22.38576 -50,-50 0,-27.61424 22.385763,-50 50,-50 27.614237,0 50,22.38576 50,50"
       style="color:#000000;font-style:normal;font-variant:normal;font-weight:normal;font-stretch:normal;font-size:medium;line-height:normal;font-family:sans-serif;font-variant-ligatures:normal;font-variant-position:normal;font-variant-caps:normal;font-variant-numeric:normal;font-variant-alternates:normal;font-variant-east-asian:normal;font-feature-settings:normal;font-variation-settings:normal;text-indent:0;text-align:start;text-decoration:none;text-decoration-line:none;text-decoration-style:solid;text-decoration-color:#000000;letter-spacing:normal;word-spacing:normal;text-transform:none;writing-mode:lr-tb;direction:ltr;text-orientation:mixed;dominant-baseline:auto;baseline-shift:baseline;text-anchor:start;white-space:normal;shape-padding:0;shape-margin:0;inline-size:0;clip-rule:nonzero;display:inline;overflow:visible;visibility:visible;isolation:auto;mix-blend-mode:normal;color-interpolation:sRGB;color-interpolation-filters:linearRGB;solid-color:#000000;solid-opacity:1;vector-effect:none;fill:#000000;fill-opacity:1;fill-rule:nonzero;stroke:none;stroke-width:1;stroke-linecap:butt;stroke-linejoin:miter;stroke-miterlimit:4;stroke-dasharray:none;stroke-dashoffset:0;stroke-opacity:1;color-rendering:auto;image-rendering:auto;shape-rendering:auto;text-rendering:auto;enable-background:accumulate;stop-color:#000000;stop-opacity:1" />
    <path
       id="path24"
       d="m 0,549.5 c -27.884458,0 -50.5,22.61554 -50.5,50.5 0,27.88446 22.615542,50.5 50.5,50.5 27.884458,0 50.5,-22.61554 50.5,-50.5 0,-27.88446 -22.615542,-50.5 -50.5,-50.5 z m 0,1 c 27.344017,0 49.5,22.15598 49.5,49.5 0,27.34402 -22.155983,49.5 -49.5,49.5 -27.344017,0 -49.5,-22.15598 -49.5,-49.5 0,-27.34402 22.155983,-49.5 49.5,-49.5 z"
       style="color:#000000;font-style:normal;font-variant:normal;font-weight:normal;font-stretch:normal;font-size:medium;line-height:normal;font-family:sans-serif;font-variant-ligatures:normal;font-variant-position:normal;font-variant-caps:normal;font-variant-numeric:normal;font-variant-alternates:normal;font-variant-east-asian:normal;font-feature-settings:normal;font-variation-settings:normal;text-indent:0;text-align:start;text-decoration:none;text-decoration-line:none;text-decoration-style:solid;text-decoration-color:#000000;letter-spacing:normal;word-spacing:normal;text-transform:none;writing-mode:lr-tb;direction:ltr;text-orientation:mixed;dominant-baseline:auto;baseline-shift:baseline;text-anchor:start;white-space:normal;shape-padding:0;shape-margin:0;inline-size:0;clip-rule:nonzero;display:inline;overflow:visible;visibility:visible;isolation:auto;mix-blend-mode:normal;color-interpolation:sRGB;color-interpolation-filters:linearRGB;solid-color:#000000;solid-opacity:1;vector-effect:none;fill-opacity:1;fill-rule:nonzero;stroke:none;stroke-width:1;stroke-linecap:butt;stroke-linejoin:miter;stroke-miterlimit:4;stroke-dasharray:none;stroke-dashoffset:0;stroke-opacity:1;color-rendering:auto;image-rendering:auto;shape-rendering:auto;text-rendering:auto;enable-background:accumulate;stop-color:#000000;stop-opacity:1" />
  </g>
  <path
     id="path28"
     d="M 131.67188,3.957 44.32813,155.60154 c 9.37923,5.4021 17.94636,13.22557 24.125,22.00781 l 0.043,0.0644 0.0449,0.0625 c 6.95636,9.85081 11.75369,22.12842 13.31445,34.06641 l 0.004,0.0371 0.004,0.0351 c 0.43364,3.29579 0.65115,6.61763 0.65039,9.9043 l 175,0.0391 c 0.003,-10.97129 -0.7174,-21.90569 -2.14258,-32.74609 C 250.06919,148.57419 235.05793,110.17873 211.51582,76.82803 190.46813,46.93829 163.27416,22.15863 131.67208,3.95693 Z M -119.74805,4 c -8.72836,5.0390197 -17.16066,10.60552 -25.2539,16.67774 -30.30822,22.70968 -54.92431,51.83914 -72.28711,85.39648 -18.56525,35.78326 -28.26499,75.36888 -28.2246,115.8125 l 174.99999,-0.17578 c -0.0118,-11.83097 3.0619,-24.45187 8.57031,-35.0625 l 0.0332,-0.0664 0.0352,-0.0664 c 5.13859,-9.93962 12.92914,-19.14175 21.81641,-25.79883 l 0.0351,-0.0254 0.0332,-0.0254 c 2.45411,-1.84201 5.04665,-3.5535 7.73828,-5.10742 z m 87.51758,284.05078 -87.53711,151.53321 c 11.73417,6.7786 23.99669,12.5972 36.68555,17.40429 34.8497,13.2289 71.94368,18.43486 108.87891,15.51368 37.43962,-2.91963 73.56786,-14.16258 106.03515,-32.95508 L 44.16602,288.08786 c -9.58567,5.54832 -20.99436,9.09255 -31.99805,9.94727 l -0.0723,0.006 -0.0742,0.004 c -11.07973,0.87939 -22.82841,-0.79999 -33.01563,-4.66992 l -0.041,-0.0156 -0.041,-0.0156 c -3.83493,-1.45235 -7.58832,-3.23297 -11.1543,-5.29297 z"
     style="color:#000000;font-style:normal;font-variant:normal;font-weight:normal;font-stretch:normal;font-size:medium;line-height:normal;font-family:sans-serif;font-variant-ligatures:normal;font-variant-position:normal;font-variant-caps:normal;font-variant-numeric:normal;font-variant-alternates:normal;font-variant-east-asian:normal;font-feature-settings:normal;font-variation-settings:normal;text-indent:0;text-align:start;text-decoration:none;text-decoration-line:none;text-decoration-style:solid;text-decoration-color:#000000;letter-spacing:normal;word-spacing:normal;text-transform:none;writing-mode:lr-tb;direction:ltr;text-orientation:mixed;dominant-baseline:auto;baseline-shift:baseline;text-anchor:start;white-space:normal;shape-padding:0;shape-margin:0;inline-size:0;clip-rule:nonzero;display:inline;overflow:visible;visibility:visible;opacity:1;isolation:auto;mix-blend-mode:normal;color-interpolation:sRGB;color-interpolation-filters:linearRGB;solid-color:#000000;solid-opacity:1;vector-effect:none;fill:#000000;fill-opacity:1;fill-rule:nonzero;stroke:none;stroke-width:175;stroke-linecap:butt;stroke-linejoin:miter;stroke-miterlimit:4;stroke-dasharray:171.74;stroke-dashoffset:0;stroke-opacity:1;color-rendering:auto;image-rendering:auto;shape-rendering:auto;text-rendering:auto;enable-background:accumulate;stop-color:#000000;stop-opacity:1" />
</svg>
